<svg xmlns="http://www.w3.org/2000/svg" width="61.196" height="48.431" viewBox="0 0 61.196 48.431">
  <g id="Group_264" data-name="Group 264" transform="translate(-47 -126)">
    <g id="path123654" transform="translate(65.665 127.337)">
      <path id="Path_403" data-name="Path 403" d="M290.836,191.335s-2.258-8.251.376-8.958,22.2-.943,24.461,0-.753,9.429-.753,9.429l-3.429-.236s2.611-6.046,1.106-6.517-18.751-1.026-19.128.152,1.129,6.365,1.129,6.365Z" transform="translate(-289.935 -181.755)" fill="#42364a"/>
    </g>
    <g id="path123649" transform="translate(48.699 134.596)">
      <path id="Path_404" data-name="Path 404" d="M161.3,244.859c-.408,0-.747.007-1.019.016l-.17,2.471-10.625.455v-2.47a20.778,20.778,0,0,0-4.844.8c-1.25.607-2.187,10.312-2.187,10.312l57.187,3.337s2.187-10.616.625-12.133c-1.5-1.459-4.437-1.792-5.772-1.815l-.322,2.877-9.687-1.061v-2.231c-5.732-.187-18.432-.583-23.186-.56Z" transform="translate(-142.459 -244.858)" fill="#19c400"/>
    </g>
    <g id="path123507" transform="translate(48.262 150.733)">
      <path id="Path_405" data-name="Path 405" d="M138.742,385.132s-.91,18.805,3.336,21.535,46.406,2.426,49.743,1.517,4.853-22.748,4.853-22.748Z" transform="translate(-138.66 -385.132)" fill="#19c400"/>
    </g>
    <g id="path123739" transform="translate(88.667 140.651)" opacity="0.2">
      <path id="Path_406" data-name="Path 406" d="M501.377,298.432s-8.945-2.2-10.3.117-1.572,23.555-.565,25.731,6.977,3.43,8.971,1.345S503.742,298.289,501.377,298.432Z" transform="translate(-489.881 -297.487)"/>
    </g>
    <g id="path123727" transform="translate(54.986 139.409)" opacity="0.2">
      <path id="Path_407" data-name="Path 407" d="M208.2,287.44s-9.008-1.93-10.295.429-.858,23.592.215,25.737,7.078,3.217,9.008,1.072S210.557,287.225,208.2,287.44Z" transform="translate(-197.11 -286.696)"/>
    </g>
    <g id="path123746" transform="translate(49.614 151.478)" opacity="0.2">
      <path id="Path_408" data-name="Path 408" d="M207.045,391.6l-1.563.042s-1.93,18.874-5.576,20.8c-4.086,1.4-41.371,2.967-49.489-3.64a6.32,6.32,0,0,0,2.066,3.584c4.246,2.73,46.406,2.427,49.743,1.517,3.141-.857,4.651-20.035,4.819-22.307Z" transform="translate(-150.417 -391.601)"/>
    </g>
    <g id="path123578" transform="translate(47 144.129)">
      <path id="Path_409" data-name="Path 409" d="M128.722,329.476s-2.1,5.46-.3,6.976,57.364,2.73,58.865.91,2.4-6.37.6-7.886S129.623,326.443,128.722,329.476Z" transform="translate(-127.692 -327.725)" fill="#42364a"/>
    </g>
    <g id="path123656" transform="translate(69.712 126)">
      <path id="Path_410" data-name="Path 410" d="M325.372,170.853s-1.215,4.241,1.62,4.443,14.985.606,15.8-.2,2.025-4.039,0-4.443-14.58-1.01-17.415.2Z" transform="translate(-325.113 -170.137)" fill="#19c400"/>
    </g>
    <g id="path123741" transform="translate(47.002 150.652)" opacity="0.2">
      <path id="Path_411" data-name="Path 411" d="M127.706,384.427a2.8,2.8,0,0,0,.728,2.2c2.355.708,60.311,4.875,59.889-.993-6.579.664-54.36,3.024-60.617-1.211Z" transform="translate(-127.706 -384.427)"/>
    </g>
    <g id="path123751" transform="translate(69.711 126.442)" opacity="0.2">
      <path id="Path_412" data-name="Path 412" d="M342.327,173.983a7.778,7.778,0,0,1-.978,3.211c-1.061,1.365-10.313.758-13.5.3-1.976-.282-2.433-1.965-2.5-3.2-.1.391-1.06,4.213,1.631,4.4,2.835.2,14.985.606,15.8-.2C343.747,177.553,344.838,173.97,342.327,173.983Z" transform="translate(-325.105 -173.983)"/>
    </g>
    <g id="path123756" transform="translate(67.452 135.265)" opacity="0.2">
      <path id="Path_413" data-name="Path 413" d="M327.311,251.428l-21.838-.758.3,1.668,21.535.3Z" transform="translate(-305.473 -250.669)" fill="#fff"/>
    </g>
    <g id="path123760" transform="translate(101.726 136.629)" opacity="0.2">
      <path id="Path_415" data-name="Path 415" d="M603.7,262.533l-.3,1.972s3.185-.3,3.488,1.062.607,1.365.607,1.365c.333-3.507-.962-3.718-3.791-4.4Z" transform="translate(-603.4 -262.533)" fill="#fff"/>
    </g>
  </g>
</svg>
